<svg width="96" height="96" viewBox="0 0 96 96" fill="none" xmlns="http://www.w3.org/2000/svg">
<circle cx="48" cy="48" r="48" fill="#FFF8FC"/>
<g clip-path="url(#clip0_5073_7906)">
<path fill-rule="evenodd" clip-rule="evenodd" d="M28.9189 45.5274H42.9259V31.5205H28.9189V45.5274Z" fill="#E00079" stroke="#E00079" stroke-width="2.06409" stroke-linecap="round" stroke-linejoin="round"/>
<path fill-rule="evenodd" clip-rule="evenodd" d="M54.8805 25.1111L41.3516 28.7359L44.977 42.2671L58.5059 38.6388L54.8805 25.1111Z" fill="#E00079" stroke="#E00079" stroke-width="2.06409" stroke-linecap="round" stroke-linejoin="round"/>
<path fill-rule="evenodd" clip-rule="evenodd" d="M48.1031 46.6218H34.0996V60.6288H48.1019L48.1031 46.6218Z" fill="#E00079" stroke="#E00079" stroke-width="2.06409" stroke-linecap="round" stroke-linejoin="round"/>
<path fill-rule="evenodd" clip-rule="evenodd" d="M43.9121 67.2607L57.4416 70.889L61.067 57.3595L47.5375 53.7341L43.9121 67.2607Z" fill="#E00079" stroke="#E00079" stroke-width="2.06409" stroke-linecap="round" stroke-linejoin="round"/>
<path fill-rule="evenodd" clip-rule="evenodd" d="M53.0771 54.0739H67.0852V40.0647H53.0771V54.0739Z" fill="#E00079" stroke="#E00079" stroke-width="2.06409" stroke-linecap="round" stroke-linejoin="round"/>
<path d="M35.9347 41.2028C35.5044 41.2028 35.1586 41.1168 34.8973 40.9447C34.7411 40.8427 34.5722 40.6642 34.3905 40.4093V41.0642H33.0568V34.0272H34.4144V36.5322C34.5865 36.29 34.7762 36.1052 34.9833 35.9777C35.2287 35.8183 35.5411 35.7386 35.9203 35.7386C36.6055 35.7386 37.141 35.9856 37.5266 36.4796C37.9154 36.9736 38.1098 37.611 38.1098 38.3919C38.1098 39.2014 37.9186 39.8723 37.5362 40.4045C37.1537 40.9367 36.6199 41.2028 35.9347 41.2028ZM36.6804 38.5353C36.6804 38.1656 36.6326 37.8596 36.537 37.6174C36.3554 37.1585 36.0207 36.929 35.5331 36.929C35.0391 36.929 34.6997 37.1537 34.5148 37.6031C34.4192 37.8421 34.3714 38.1512 34.3714 38.5305C34.3714 38.9767 34.4702 39.3464 34.6678 39.6396C34.8654 39.9328 35.1666 40.0794 35.5713 40.0794C35.9219 40.0794 36.1944 39.9376 36.3888 39.6539C36.5832 39.3703 36.6804 38.9974 36.6804 38.5353Z" fill="white"/>
<path d="M47.9342 29.7094L49.0953 29.3981L50.7055 35.4036L49.5443 35.7149L47.9342 29.7094Z" fill="white"/>
<path d="M42.4231 50.5322C42.807 50.7782 43.0274 51.2012 43.0843 51.8011L41.8019 51.8009C41.784 51.636 41.7375 51.5055 41.6625 51.4095C41.5216 51.2355 41.2816 51.1485 40.9427 51.1484C40.6637 51.1484 40.4642 51.1918 40.3442 51.2788C40.2272 51.3658 40.1687 51.4677 40.1687 51.5847C40.1687 51.7317 40.2317 51.8382 40.3576 51.9042C40.4836 51.9732 40.929 52.0918 41.6939 52.2599C42.2038 52.3799 42.5862 52.5615 42.8411 52.8045C43.0931 53.0505 43.219 53.3579 43.2189 53.7269C43.2189 54.2128 43.0373 54.6102 42.6743 54.9191C42.3143 55.225 41.7564 55.3779 41.0005 55.3778C40.2296 55.3777 39.6597 55.2156 39.2908 54.8916C38.9249 54.5646 38.742 54.1491 38.7421 53.6452L40.0424 53.6454C40.0694 53.8734 40.1278 54.0354 40.2178 54.1314C40.3767 54.3024 40.6707 54.3879 41.0996 54.388C41.3516 54.388 41.5511 54.3505 41.6981 54.2756C41.8481 54.2006 41.9231 54.0881 41.9231 53.9382C41.9231 53.7942 41.8631 53.6847 41.7432 53.6097C41.6232 53.5347 41.1778 53.4056 40.4069 53.2225C39.852 53.0845 39.4606 52.9119 39.2327 52.7049C39.0047 52.5009 38.8908 52.2069 38.8908 51.823C38.8909 51.37 39.068 50.9816 39.422 50.6577C39.779 50.3308 40.2799 50.1674 40.9248 50.1675C41.5367 50.1676 42.0361 50.2892 42.4231 50.5322Z" fill="white"/>
<path d="M53.8546 61.9028L52.6648 61.5838C52.6875 61.4122 52.6719 61.2479 52.6179 61.0907C52.5356 60.8765 52.3573 60.7326 52.0829 60.659C51.6917 60.5541 51.3721 60.6766 51.1239 61.0265C50.9925 61.2125 50.8809 61.4767 50.7892 61.819C50.7018 62.145 50.6695 62.4173 50.6924 62.636C50.7319 63.0426 50.9432 63.2972 51.3262 63.3999C51.5978 63.4728 51.8104 63.4511 51.9638 63.335C52.1172 63.2189 52.2375 63.0474 52.3246 62.8203L53.5103 63.1382C53.3885 63.4841 53.1712 63.784 52.8585 64.0379C52.3583 64.4483 51.751 64.5577 51.0365 64.3661C50.3221 64.1746 49.8533 63.8218 49.6301 63.3077C49.4068 62.7936 49.3859 62.1984 49.5673 61.522C49.7719 60.7586 50.1171 60.215 50.6029 59.891C51.0887 59.567 51.6589 59.4927 52.3136 59.6683C52.8705 59.8176 53.292 60.0645 53.5781 60.4091C53.867 60.7545 53.9592 61.2523 53.8546 61.9028Z" fill="white"/>
<path d="M61.7802 44.0949C62.22 44.6462 62.4399 45.298 62.4399 46.0501C62.4399 46.815 62.22 47.47 61.7802 48.015C61.3404 48.5568 60.6727 48.8277 59.7771 48.8277C58.8816 48.8277 58.2139 48.5568 57.7741 48.015C57.3343 47.47 57.1143 46.815 57.1143 46.0501C57.1143 45.298 57.3343 44.6462 57.7741 44.0949C58.2139 43.5435 58.8816 43.2678 59.7771 43.2678C60.6727 43.2678 61.3404 43.5435 61.7802 44.0949ZM59.7723 44.42C59.374 44.42 59.0664 44.5618 58.8497 44.8454C58.6362 45.1259 58.5294 45.5275 58.5294 46.0501C58.5294 46.5728 58.6362 46.976 58.8497 47.2596C59.0664 47.5433 59.374 47.6851 59.7723 47.6851C60.1707 47.6851 60.4767 47.5433 60.6902 47.2596C60.9038 46.976 61.0105 46.5728 61.0105 46.0501C61.0105 45.5275 60.9038 45.1259 60.6902 44.8454C60.4767 44.5618 60.1707 44.42 59.7723 44.42Z" fill="white"/>
</g>
<defs>
<clipPath id="clip0_5073_7906">
<rect width="40.2285" height="47.8416" fill="white" transform="translate(27.8857 24.0791)"/>
</clipPath>
</defs>
</svg>
