<svg width="96" height="96" viewBox="0 0 96 96" fill="none" xmlns="http://www.w3.org/2000/svg">
<circle cx="48" cy="48" r="48" fill="#DACDE8"/>
<path d="M44 64C55 59 45.6 51.2 50 44" stroke="white" stroke-width="4" stroke-linecap="round" stroke-linejoin="round"/>
<path d="M43 42.8002C45.2 44.4002 46.6 47.2002 47.6 50.2002C43.6 51.0002 40.6 51.0002 38 49.6002C35.6 48.4002 33.4 45.8002 32 41.2002C37.6 40.2002 40.8 41.2002 43 42.8002Z" stroke="white" stroke-width="4" stroke-linecap="round" stroke-linejoin="round"/>
<path d="M52.1996 36C50.6747 38.3831 49.9077 41.1723 49.9996 44C53.7996 43.8 56.5996 42.8 58.5996 41.2C60.5996 39.2 61.7996 36.6 61.9996 32C56.5996 32.2 53.9996 34 52.1996 36Z" stroke="white" stroke-width="4" stroke-linecap="round" stroke-linejoin="round"/>
</svg>
