<svg width="96" height="96" viewBox="0 0 96 96" fill="none" xmlns="http://www.w3.org/2000/svg">
<circle cx="48" cy="48" r="48" fill="#DFCFC2"/>
<path d="M8.24616 55V42.943H16.0954V44.6423H10.1559V48.2675H15.448V49.9668H10.1559V55H8.24616ZM16.8675 55V46.2445H18.6154V48.0085L18.4535 47.7496C18.6478 47.1778 18.9606 46.7678 19.3922 46.5196C19.8238 46.2607 20.3417 46.1312 20.9459 46.1312H21.4799V47.7982H20.7193C20.1151 47.7982 19.6242 47.987 19.2466 48.3646C18.8797 48.7314 18.6963 49.2601 18.6963 49.9506V55H16.8675ZM25.191 55.1942C24.5976 55.1942 24.0743 55.0917 23.6211 54.8867C23.1788 54.6709 22.8335 54.3796 22.5854 54.0128C22.3372 53.6352 22.2131 53.1928 22.2131 52.6857C22.2131 52.211 22.3156 51.7848 22.5206 51.4072C22.7364 51.0295 23.0655 50.7113 23.5079 50.4523C23.9502 50.1934 24.5059 50.01 25.1748 49.9021L28.2174 49.4004V50.8407L25.5309 51.3101C25.0453 51.3964 24.6893 51.5528 24.4627 51.7794C24.2361 51.9952 24.1229 52.2757 24.1229 52.621C24.1229 52.9554 24.2469 53.2306 24.4951 53.4463C24.754 53.6513 25.0831 53.7538 25.4823 53.7538C25.9786 53.7538 26.4102 53.6459 26.777 53.4302C27.1546 53.2144 27.446 52.9285 27.6509 52.5724C27.8559 52.2056 27.9584 51.801 27.9584 51.3586V49.109C27.9584 48.6775 27.7966 48.3268 27.4729 48.0571C27.16 47.7766 26.7393 47.6363 26.2106 47.6363C25.7251 47.6363 25.2989 47.7658 24.932 48.0247C24.576 48.2729 24.3117 48.5966 24.139 48.9958L22.6177 48.2351C22.7796 47.8035 23.0439 47.4259 23.4108 47.1022C23.7776 46.7678 24.2038 46.5088 24.6893 46.3254C25.1856 46.142 25.7089 46.0503 26.2591 46.0503C26.9496 46.0503 27.5592 46.1798 28.0879 46.4387C28.6274 46.6976 29.0428 47.0591 29.3341 47.523C29.6362 47.9762 29.7872 48.5048 29.7872 49.109V55H28.0394V53.414L28.4116 53.4625C28.2066 53.8186 27.9423 54.1261 27.6186 54.385C27.3057 54.644 26.9442 54.8436 26.5343 54.9838C26.1351 55.1241 25.6873 55.1942 25.191 55.1942ZM31.7637 55V46.2445H33.5116V48.138L33.285 47.8467C33.4684 47.2533 33.8029 46.8055 34.2884 46.5034C34.7739 46.2013 35.3295 46.0503 35.9553 46.0503C36.6566 46.0503 37.277 46.2391 37.8165 46.6167C38.3667 46.9836 38.7336 47.4745 38.917 48.0895L38.3991 48.138C38.658 47.4367 39.0519 46.9134 39.5805 46.5682C40.12 46.2229 40.735 46.0503 41.4255 46.0503C42.0297 46.0503 42.5746 46.1905 43.0601 46.4711C43.5564 46.7516 43.9502 47.14 44.2415 47.6363C44.5328 48.1326 44.6785 48.6991 44.6785 49.3356V55H42.8497V49.8373C42.8497 49.395 42.7688 49.0227 42.6069 48.7206C42.4559 48.4077 42.2401 48.1704 41.9596 48.0085C41.6898 47.8359 41.3715 47.7496 41.0047 47.7496C40.6379 47.7496 40.3142 47.8359 40.0337 48.0085C39.7532 48.1704 39.532 48.4077 39.3701 48.7206C39.2083 49.0335 39.1274 49.4058 39.1274 49.8373V55H37.3148V49.8373C37.3148 49.395 37.2339 49.0227 37.072 48.7206C36.921 48.4077 36.7052 48.1704 36.4247 48.0085C36.1549 47.8359 35.8312 47.7496 35.4536 47.7496C35.0868 47.7496 34.7631 47.8359 34.4826 48.0085C34.2021 48.1704 33.9809 48.4077 33.819 48.7206C33.668 49.0335 33.5925 49.4058 33.5925 49.8373V55H31.7637ZM50.5847 55.1942C49.7108 55.1942 48.934 54.9946 48.2542 54.5954C47.5853 54.1854 47.062 53.6352 46.6844 52.9446C46.3068 52.2433 46.118 51.4611 46.118 50.598C46.118 49.7132 46.3068 48.931 46.6844 48.2513C47.0728 47.5716 47.5907 47.0375 48.238 46.6491C48.8854 46.2499 49.6191 46.0503 50.4391 46.0503C51.0972 46.0503 51.6852 46.1636 52.2031 46.3901C52.721 46.6167 53.158 46.9296 53.514 47.3288C53.8701 47.7172 54.1398 48.165 54.3232 48.6721C54.5174 49.1792 54.6145 49.7186 54.6145 50.2905C54.6145 50.4307 54.6091 50.5764 54.5983 50.7274C54.5875 50.8785 54.566 51.0188 54.5336 51.1482H47.5583V49.6917H53.4978L52.6239 50.3552C52.7318 49.8265 52.694 49.3572 52.5106 48.9472C52.338 48.5264 52.0682 48.1974 51.7014 47.96C51.3454 47.7118 50.9246 47.5878 50.4391 47.5878C49.9535 47.5878 49.522 47.7118 49.1443 47.96C48.7667 48.1974 48.4754 48.5426 48.2704 48.9958C48.0654 49.4381 47.9845 49.9776 48.0277 50.6142C47.9737 51.2076 48.0546 51.7255 48.2704 52.1678C48.497 52.6102 48.8099 52.9554 49.2091 53.2036C49.6191 53.4517 50.083 53.5758 50.6009 53.5758C51.1296 53.5758 51.5773 53.4571 51.9442 53.2198C52.3218 52.9824 52.6185 52.6749 52.8343 52.2973L54.3232 53.0256C54.1506 53.4356 53.8808 53.8078 53.514 54.1423C53.158 54.4659 52.7264 54.7249 52.2193 54.9191C51.723 55.1025 51.1781 55.1942 50.5847 55.1942ZM56.2375 55V46.2445H57.9853V48.0085L57.8235 47.7496C58.0177 47.1778 58.3306 46.7678 58.7621 46.5196C59.1937 46.2607 59.7116 46.1312 60.3158 46.1312H60.8499V47.7982H60.0892C59.485 47.7982 58.9941 47.987 58.6165 48.3646C58.2497 48.7314 58.0662 49.2601 58.0662 49.9506V55H56.2375ZM62.1003 55V52.8961H63.9615V55H62.1003ZM66.918 55V42.943H68.8277V53.3007H74.0389V55H66.918ZM75.3023 55V46.2445H77.131V55H75.3023ZM75.3023 45.0469V42.943H77.131V45.0469H75.3023ZM83.7845 55.1942C83.1048 55.1942 82.4844 55.0539 81.9234 54.7734C81.3731 54.4929 80.9469 54.0883 80.6448 53.5596L80.8552 53.2198V55H79.1074V42.7488H80.9362V48.0571L80.6448 47.6363C80.9685 47.14 81.4001 46.7516 81.9396 46.4711C82.479 46.1905 83.094 46.0503 83.7845 46.0503C84.6153 46.0503 85.3598 46.2499 86.0179 46.6491C86.6868 47.0483 87.2101 47.5932 87.5877 48.2837C87.9762 48.9742 88.1704 49.751 88.1704 50.6142C88.1704 51.4773 87.9762 52.2541 87.5877 52.9446C87.2101 53.6352 86.6922 54.1854 86.0341 54.5954C85.3759 54.9946 84.6261 55.1942 83.7845 55.1942ZM83.6065 53.4949C84.1244 53.4949 84.5829 53.3708 84.9821 53.1227C85.3813 52.8745 85.6942 52.5346 85.9208 52.1031C86.1582 51.6607 86.2769 51.1644 86.2769 50.6142C86.2769 50.0639 86.1582 49.573 85.9208 49.1414C85.6942 48.7098 85.3813 48.37 84.9821 48.1218C84.5829 47.8737 84.1244 47.7496 83.6065 47.7496C83.0994 47.7496 82.6409 47.8737 82.2309 48.1218C81.8317 48.37 81.5134 48.7098 81.276 49.1414C81.0494 49.573 80.9362 50.0639 80.9362 50.6142C80.9362 51.1644 81.0494 51.6607 81.276 52.1031C81.5134 52.5346 81.8317 52.8745 82.2309 53.1227C82.6409 53.3708 83.0994 53.4949 83.6065 53.4949Z" fill="white"/>
</svg>
