<svg width="96" height="96" viewBox="0 0 96 96" fill="none" xmlns="http://www.w3.org/2000/svg">
<circle cx="48" cy="48" r="48" fill="#4E4EE5"/>
<path d="M64.0712 45.4035C64.0712 43.9483 62.8915 42.7686 61.4363 42.7686H55.8155C54.3602 42.7686 53.1805 41.5889 53.1805 40.1337V34.5617C53.1805 33.1064 52.0009 31.9268 50.5456 31.9268H45.3786C43.9234 31.9268 42.7766 33.1239 42.4285 34.5369C41.4701 38.4269 38.4179 41.4881 34.5384 42.4511C33.1261 42.8017 31.9287 43.9483 31.9287 45.4035V50.5965C31.9287 52.0517 33.1084 53.2314 34.5636 53.2314H40.1088C41.564 53.2314 42.7437 54.4111 42.7437 55.8663V61.4383C42.7437 62.8936 43.9234 64.0732 45.3786 64.0732H50.5456C52.0009 64.0732 53.1476 62.8757 53.5002 61.4639C54.4723 57.572 57.5659 54.5096 61.4613 53.5478C62.8741 53.199 64.0712 52.0517 64.0712 50.5965V45.4035Z" fill="white"/>
</svg>
