<svg width="96" height="96" viewBox="0 0 96 96" fill="none" xmlns="http://www.w3.org/2000/svg">
<circle cx="48" cy="48" r="48" fill="#F2F9FF"/>
<mask id="path-2-outside-1_5073_7914" maskUnits="userSpaceOnUse" x="8.13086" y="43.1252" width="79" height="9" fill="black">
<rect fill="white" x="8.13086" y="43.1252" width="79" height="9"/>
<path d="M9.52137 51.7338C9.35724 51.7338 9.24971 51.6846 9.19877 51.5863C9.1535 51.4835 9.13086 51.3629 9.13086 51.2243V44.5141C9.13086 44.3844 9.16199 44.3107 9.22424 44.2928C9.2865 44.275 9.39969 44.266 9.56382 44.266H12.3823C13.1577 44.266 13.8623 44.2973 14.4961 44.3599C15.13 44.418 15.6762 44.5386 16.1346 44.7219C16.593 44.9051 16.9467 45.1732 17.1958 45.5263C17.4448 45.8749 17.5693 46.3419 17.5693 46.9273C17.5693 47.5351 17.4306 48.0088 17.1533 48.3485C16.8817 48.6837 16.5053 48.9272 16.0242 49.0792C15.5432 49.2267 14.9914 49.3183 14.3688 49.354C13.7463 49.3853 13.0841 49.401 12.3823 49.401H9.85246V51.2243C9.85246 51.3539 9.82982 51.4724 9.78454 51.5796C9.74492 51.6824 9.6572 51.7338 9.52137 51.7338ZM9.85246 48.9853H12.3823C13.4123 48.9853 14.2556 48.9451 14.9121 48.8647C15.5743 48.7798 16.061 48.5921 16.3723 48.3016C16.6892 48.0111 16.8477 47.553 16.8477 46.9273C16.8477 46.3061 16.6892 45.8369 16.3723 45.5196C16.0554 45.2023 15.5658 44.9878 14.9036 44.876C14.2471 44.7643 13.4067 44.7085 12.3823 44.7085H9.85246V48.9853Z"/>
<path d="M19.4244 51.7338C19.249 51.7338 19.1386 51.6846 19.0933 51.5863C19.0537 51.488 19.0339 51.3807 19.0339 51.2646V44.7353C19.0339 44.6191 19.0565 44.5118 19.1018 44.4135C19.1527 44.3152 19.2659 44.266 19.4414 44.266C19.5659 44.266 19.648 44.3174 19.6876 44.4202C19.7329 44.5185 19.7555 44.6235 19.7555 44.7353V47.6714H27.2686V44.7353C27.2686 44.6191 27.2856 44.5118 27.3195 44.4135C27.3591 44.3152 27.461 44.266 27.6251 44.266C27.7949 44.266 27.8968 44.3152 27.9308 44.4135C27.9704 44.5118 27.9902 44.6191 27.9902 44.7353V51.2646C27.9902 51.3807 27.9704 51.488 27.9308 51.5863C27.8968 51.6846 27.7978 51.7338 27.6336 51.7338C27.4638 51.7338 27.3591 51.6846 27.3195 51.5863C27.2856 51.488 27.2686 51.3807 27.2686 51.2646V48.0871H19.7555V51.2646C19.7555 51.3763 19.73 51.4835 19.6791 51.5863C19.6338 51.6846 19.5489 51.7338 19.4244 51.7338Z"/>
<path d="M36.45 51.8746C34.2994 51.8746 32.7232 51.555 31.7214 50.916C30.7197 50.2769 30.2188 49.3049 30.2188 47.9999C30.2188 46.6949 30.7197 45.7229 31.7214 45.0839C32.7232 44.4448 34.2994 44.1252 36.45 44.1252C38.6007 44.1252 40.1769 44.4448 41.1786 45.0839C42.186 45.7229 42.6897 46.6949 42.6897 47.9999C42.6897 49.3049 42.186 50.2769 41.1786 50.916C40.1769 51.555 38.6007 51.8746 36.45 51.8746ZM36.45 51.4321C38.3064 51.4321 39.6901 51.1729 40.6013 50.6545C41.5125 50.1316 41.9681 49.2468 41.9681 47.9999C41.9681 46.753 41.5125 45.8704 40.6013 45.352C39.6901 44.8291 38.3064 44.5677 36.45 44.5677C34.5937 44.5677 33.2099 44.8291 32.2987 45.352C31.3932 45.8704 30.9404 46.753 30.9404 47.9999C30.9404 49.2468 31.3932 50.1316 32.2987 50.6545C33.2099 51.1729 34.5937 51.4321 36.45 51.4321Z"/>
<path d="M45.1561 51.7338C45.0485 51.7338 44.9834 51.7204 44.9608 51.6936C44.9438 51.6668 44.9353 51.602 44.9353 51.4992V44.5811C44.9353 44.4515 44.9466 44.3666 44.9693 44.3264C44.9919 44.2861 45.0853 44.266 45.2494 44.266H53.0002C53.1644 44.266 53.3087 44.2727 53.4332 44.2861C53.5634 44.2995 53.6285 44.371 53.6285 44.5006C53.6285 44.6124 53.5634 44.6749 53.4332 44.6883C53.3087 44.7018 53.1644 44.7085 53.0002 44.7085H45.6569V47.6446H52.9578C53.0823 47.6446 53.187 47.658 53.2719 47.6848C53.3568 47.7117 53.3992 47.7698 53.3992 47.8591C53.3992 47.9575 53.3625 48.0223 53.2889 48.0535C53.221 48.0848 53.1304 48.1005 53.0172 48.1005H45.6569V51.2914H53.0172C53.1813 51.2914 53.3257 51.2981 53.4502 51.3115C53.5804 51.3249 53.6454 51.3875 53.6454 51.4992C53.6454 51.6288 53.5917 51.7003 53.4841 51.7137C53.3823 51.7226 53.2493 51.7293 53.0851 51.7338H45.1561Z"/>
<path d="M56.1797 51.7338C56.0156 51.7338 55.9109 51.6891 55.8656 51.5997C55.826 51.5059 55.8062 51.3942 55.8062 51.2646V44.7018C55.8062 44.4247 55.9222 44.2861 56.1542 44.2861C56.2957 44.2861 56.4598 44.3532 56.6466 44.4872L65.3312 50.8757V44.7755C65.3312 44.6459 65.3482 44.5297 65.3822 44.4269C65.4218 44.3196 65.5265 44.266 65.6963 44.266C65.8434 44.266 65.9396 44.3174 65.9849 44.4202C66.0302 44.5185 66.0528 44.637 66.0528 44.7755V51.3048C66.0528 51.5908 65.9566 51.7338 65.7642 51.7338C65.634 51.7338 65.4727 51.6645 65.2803 51.526L56.5278 45.1241V51.2646C56.5278 51.3942 56.5023 51.5059 56.4513 51.5997C56.4061 51.6891 56.3155 51.7338 56.1797 51.7338Z"/>
<path d="M68.2305 51.7338C68.0947 51.7338 67.956 51.7271 67.8146 51.7137C67.6787 51.7003 67.6108 51.6288 67.6108 51.4992C67.6108 51.3875 67.6759 51.3249 67.8061 51.3115C67.9419 51.2981 68.0834 51.2914 68.2305 51.2914H71.2612V44.7085H68.2305C68.0834 44.7085 67.9419 44.7018 67.8061 44.6883C67.6759 44.6749 67.6108 44.6124 67.6108 44.5006C67.6108 44.371 67.6787 44.2995 67.8146 44.2861C67.956 44.2727 68.0947 44.266 68.2305 44.266H75.0135C75.1777 44.266 75.3192 44.2727 75.438 44.2861C75.5625 44.2995 75.6248 44.3666 75.6248 44.4872C75.6248 44.6079 75.5625 44.6749 75.438 44.6883C75.3192 44.7018 75.1777 44.7085 75.0135 44.7085H71.9828V51.2914H75.0135C75.1777 51.2914 75.3192 51.2981 75.438 51.3115C75.5625 51.3249 75.6248 51.3919 75.6248 51.5126C75.6248 51.6332 75.5625 51.7003 75.438 51.7137C75.3192 51.7271 75.1777 51.7338 75.0135 51.7338H68.2305Z"/>
<path d="M77.1997 51.7338C77.0413 51.7338 76.962 51.6735 76.962 51.5528C76.962 51.45 77.0328 51.345 77.1743 51.2377L81.4784 48.0669L77.2507 44.7487C77.1488 44.6682 77.0979 44.5856 77.0979 44.5006C77.0979 44.3487 77.1884 44.2727 77.3695 44.2727C77.4827 44.2727 77.5959 44.3174 77.7091 44.4068L81.9198 47.7385L86.1306 44.4068C86.2438 44.3174 86.3569 44.2727 86.4701 44.2727C86.6456 44.2727 86.7333 44.3487 86.7333 44.5006C86.7333 44.59 86.6852 44.6727 86.589 44.7487L82.3613 48.0669L86.6654 51.231C86.8012 51.3338 86.8691 51.4388 86.8691 51.5461C86.8691 51.6712 86.7927 51.7338 86.6399 51.7338C86.5154 51.7338 86.3824 51.6802 86.2409 51.5729L81.9198 48.3954L77.5987 51.5796C77.4629 51.6824 77.3299 51.7338 77.1997 51.7338Z"/>
</mask>
<path d="M9.52137 51.7338C9.35724 51.7338 9.24971 51.6846 9.19877 51.5863C9.1535 51.4835 9.13086 51.3629 9.13086 51.2243V44.5141C9.13086 44.3844 9.16199 44.3107 9.22424 44.2928C9.2865 44.275 9.39969 44.266 9.56382 44.266H12.3823C13.1577 44.266 13.8623 44.2973 14.4961 44.3599C15.13 44.418 15.6762 44.5386 16.1346 44.7219C16.593 44.9051 16.9467 45.1732 17.1958 45.5263C17.4448 45.8749 17.5693 46.3419 17.5693 46.9273C17.5693 47.5351 17.4306 48.0088 17.1533 48.3485C16.8817 48.6837 16.5053 48.9272 16.0242 49.0792C15.5432 49.2267 14.9914 49.3183 14.3688 49.354C13.7463 49.3853 13.0841 49.401 12.3823 49.401H9.85246V51.2243C9.85246 51.3539 9.82982 51.4724 9.78454 51.5796C9.74492 51.6824 9.6572 51.7338 9.52137 51.7338ZM9.85246 48.9853H12.3823C13.4123 48.9853 14.2556 48.9451 14.9121 48.8647C15.5743 48.7798 16.061 48.5921 16.3723 48.3016C16.6892 48.0111 16.8477 47.553 16.8477 46.9273C16.8477 46.3061 16.6892 45.8369 16.3723 45.5196C16.0554 45.2023 15.5658 44.9878 14.9036 44.876C14.2471 44.7643 13.4067 44.7085 12.3823 44.7085H9.85246V48.9853Z" fill="#07A1DC"/>
<path d="M19.4244 51.7338C19.249 51.7338 19.1386 51.6846 19.0933 51.5863C19.0537 51.488 19.0339 51.3807 19.0339 51.2646V44.7353C19.0339 44.6191 19.0565 44.5118 19.1018 44.4135C19.1527 44.3152 19.2659 44.266 19.4414 44.266C19.5659 44.266 19.648 44.3174 19.6876 44.4202C19.7329 44.5185 19.7555 44.6235 19.7555 44.7353V47.6714H27.2686V44.7353C27.2686 44.6191 27.2856 44.5118 27.3195 44.4135C27.3591 44.3152 27.461 44.266 27.6251 44.266C27.7949 44.266 27.8968 44.3152 27.9308 44.4135C27.9704 44.5118 27.9902 44.6191 27.9902 44.7353V51.2646C27.9902 51.3807 27.9704 51.488 27.9308 51.5863C27.8968 51.6846 27.7978 51.7338 27.6336 51.7338C27.4638 51.7338 27.3591 51.6846 27.3195 51.5863C27.2856 51.488 27.2686 51.3807 27.2686 51.2646V48.0871H19.7555V51.2646C19.7555 51.3763 19.73 51.4835 19.6791 51.5863C19.6338 51.6846 19.5489 51.7338 19.4244 51.7338Z" fill="#07A1DC"/>
<path d="M36.45 51.8746C34.2994 51.8746 32.7232 51.555 31.7214 50.916C30.7197 50.2769 30.2188 49.3049 30.2188 47.9999C30.2188 46.6949 30.7197 45.7229 31.7214 45.0839C32.7232 44.4448 34.2994 44.1252 36.45 44.1252C38.6007 44.1252 40.1769 44.4448 41.1786 45.0839C42.186 45.7229 42.6897 46.6949 42.6897 47.9999C42.6897 49.3049 42.186 50.2769 41.1786 50.916C40.1769 51.555 38.6007 51.8746 36.45 51.8746ZM36.45 51.4321C38.3064 51.4321 39.6901 51.1729 40.6013 50.6545C41.5125 50.1316 41.9681 49.2468 41.9681 47.9999C41.9681 46.753 41.5125 45.8704 40.6013 45.352C39.6901 44.8291 38.3064 44.5677 36.45 44.5677C34.5937 44.5677 33.2099 44.8291 32.2987 45.352C31.3932 45.8704 30.9404 46.753 30.9404 47.9999C30.9404 49.2468 31.3932 50.1316 32.2987 50.6545C33.2099 51.1729 34.5937 51.4321 36.45 51.4321Z" fill="#07A1DC"/>
<path d="M45.1561 51.7338C45.0485 51.7338 44.9834 51.7204 44.9608 51.6936C44.9438 51.6668 44.9353 51.602 44.9353 51.4992V44.5811C44.9353 44.4515 44.9466 44.3666 44.9693 44.3264C44.9919 44.2861 45.0853 44.266 45.2494 44.266H53.0002C53.1644 44.266 53.3087 44.2727 53.4332 44.2861C53.5634 44.2995 53.6285 44.371 53.6285 44.5006C53.6285 44.6124 53.5634 44.6749 53.4332 44.6883C53.3087 44.7018 53.1644 44.7085 53.0002 44.7085H45.6569V47.6446H52.9578C53.0823 47.6446 53.187 47.658 53.2719 47.6848C53.3568 47.7117 53.3992 47.7698 53.3992 47.8591C53.3992 47.9575 53.3625 48.0223 53.2889 48.0535C53.221 48.0848 53.1304 48.1005 53.0172 48.1005H45.6569V51.2914H53.0172C53.1813 51.2914 53.3257 51.2981 53.4502 51.3115C53.5804 51.3249 53.6454 51.3875 53.6454 51.4992C53.6454 51.6288 53.5917 51.7003 53.4841 51.7137C53.3823 51.7226 53.2493 51.7293 53.0851 51.7338H45.1561Z" fill="#07A1DC"/>
<path d="M56.1797 51.7338C56.0156 51.7338 55.9109 51.6891 55.8656 51.5997C55.826 51.5059 55.8062 51.3942 55.8062 51.2646V44.7018C55.8062 44.4247 55.9222 44.2861 56.1542 44.2861C56.2957 44.2861 56.4598 44.3532 56.6466 44.4872L65.3312 50.8757V44.7755C65.3312 44.6459 65.3482 44.5297 65.3822 44.4269C65.4218 44.3196 65.5265 44.266 65.6963 44.266C65.8434 44.266 65.9396 44.3174 65.9849 44.4202C66.0302 44.5185 66.0528 44.637 66.0528 44.7755V51.3048C66.0528 51.5908 65.9566 51.7338 65.7642 51.7338C65.634 51.7338 65.4727 51.6645 65.2803 51.526L56.5278 45.1241V51.2646C56.5278 51.3942 56.5023 51.5059 56.4513 51.5997C56.4061 51.6891 56.3155 51.7338 56.1797 51.7338Z" fill="#07A1DC"/>
<path d="M68.2305 51.7338C68.0947 51.7338 67.956 51.7271 67.8146 51.7137C67.6787 51.7003 67.6108 51.6288 67.6108 51.4992C67.6108 51.3875 67.6759 51.3249 67.8061 51.3115C67.9419 51.2981 68.0834 51.2914 68.2305 51.2914H71.2612V44.7085H68.2305C68.0834 44.7085 67.9419 44.7018 67.8061 44.6883C67.6759 44.6749 67.6108 44.6124 67.6108 44.5006C67.6108 44.371 67.6787 44.2995 67.8146 44.2861C67.956 44.2727 68.0947 44.266 68.2305 44.266H75.0135C75.1777 44.266 75.3192 44.2727 75.438 44.2861C75.5625 44.2995 75.6248 44.3666 75.6248 44.4872C75.6248 44.6079 75.5625 44.6749 75.438 44.6883C75.3192 44.7018 75.1777 44.7085 75.0135 44.7085H71.9828V51.2914H75.0135C75.1777 51.2914 75.3192 51.2981 75.438 51.3115C75.5625 51.3249 75.6248 51.3919 75.6248 51.5126C75.6248 51.6332 75.5625 51.7003 75.438 51.7137C75.3192 51.7271 75.1777 51.7338 75.0135 51.7338H68.2305Z" fill="#07A1DC"/>
<path d="M77.1997 51.7338C77.0413 51.7338 76.962 51.6735 76.962 51.5528C76.962 51.45 77.0328 51.345 77.1743 51.2377L81.4784 48.0669L77.2507 44.7487C77.1488 44.6682 77.0979 44.5856 77.0979 44.5006C77.0979 44.3487 77.1884 44.2727 77.3695 44.2727C77.4827 44.2727 77.5959 44.3174 77.7091 44.4068L81.9198 47.7385L86.1306 44.4068C86.2438 44.3174 86.3569 44.2727 86.4701 44.2727C86.6456 44.2727 86.7333 44.3487 86.7333 44.5006C86.7333 44.59 86.6852 44.6727 86.589 44.7487L82.3613 48.0669L86.6654 51.231C86.8012 51.3338 86.8691 51.4388 86.8691 51.5461C86.8691 51.6712 86.7927 51.7338 86.6399 51.7338C86.5154 51.7338 86.3824 51.6802 86.2409 51.5729L81.9198 48.3954L77.5987 51.5796C77.4629 51.6824 77.3299 51.7338 77.1997 51.7338Z" fill="#07A1DC"/>
<path d="M9.52137 51.7338C9.35724 51.7338 9.24971 51.6846 9.19877 51.5863C9.1535 51.4835 9.13086 51.3629 9.13086 51.2243V44.5141C9.13086 44.3844 9.16199 44.3107 9.22424 44.2928C9.2865 44.275 9.39969 44.266 9.56382 44.266H12.3823C13.1577 44.266 13.8623 44.2973 14.4961 44.3599C15.13 44.418 15.6762 44.5386 16.1346 44.7219C16.593 44.9051 16.9467 45.1732 17.1958 45.5263C17.4448 45.8749 17.5693 46.3419 17.5693 46.9273C17.5693 47.5351 17.4306 48.0088 17.1533 48.3485C16.8817 48.6837 16.5053 48.9272 16.0242 49.0792C15.5432 49.2267 14.9914 49.3183 14.3688 49.354C13.7463 49.3853 13.0841 49.401 12.3823 49.401H9.85246V51.2243C9.85246 51.3539 9.82982 51.4724 9.78454 51.5796C9.74492 51.6824 9.6572 51.7338 9.52137 51.7338ZM9.85246 48.9853H12.3823C13.4123 48.9853 14.2556 48.9451 14.9121 48.8647C15.5743 48.7798 16.061 48.5921 16.3723 48.3016C16.6892 48.0111 16.8477 47.553 16.8477 46.9273C16.8477 46.3061 16.6892 45.8369 16.3723 45.5196C16.0554 45.2023 15.5658 44.9878 14.9036 44.876C14.2471 44.7643 13.4067 44.7085 12.3823 44.7085H9.85246V48.9853Z" stroke="#02A1D9" stroke-width="0.4" mask="url(#path-2-outside-1_5073_7914)"/>
<path d="M19.4244 51.7338C19.249 51.7338 19.1386 51.6846 19.0933 51.5863C19.0537 51.488 19.0339 51.3807 19.0339 51.2646V44.7353C19.0339 44.6191 19.0565 44.5118 19.1018 44.4135C19.1527 44.3152 19.2659 44.266 19.4414 44.266C19.5659 44.266 19.648 44.3174 19.6876 44.4202C19.7329 44.5185 19.7555 44.6235 19.7555 44.7353V47.6714H27.2686V44.7353C27.2686 44.6191 27.2856 44.5118 27.3195 44.4135C27.3591 44.3152 27.461 44.266 27.6251 44.266C27.7949 44.266 27.8968 44.3152 27.9308 44.4135C27.9704 44.5118 27.9902 44.6191 27.9902 44.7353V51.2646C27.9902 51.3807 27.9704 51.488 27.9308 51.5863C27.8968 51.6846 27.7978 51.7338 27.6336 51.7338C27.4638 51.7338 27.3591 51.6846 27.3195 51.5863C27.2856 51.488 27.2686 51.3807 27.2686 51.2646V48.0871H19.7555V51.2646C19.7555 51.3763 19.73 51.4835 19.6791 51.5863C19.6338 51.6846 19.5489 51.7338 19.4244 51.7338Z" stroke="#02A1D9" stroke-width="0.4" mask="url(#path-2-outside-1_5073_7914)"/>
<path d="M36.45 51.8746C34.2994 51.8746 32.7232 51.555 31.7214 50.916C30.7197 50.2769 30.2188 49.3049 30.2188 47.9999C30.2188 46.6949 30.7197 45.7229 31.7214 45.0839C32.7232 44.4448 34.2994 44.1252 36.45 44.1252C38.6007 44.1252 40.1769 44.4448 41.1786 45.0839C42.186 45.7229 42.6897 46.6949 42.6897 47.9999C42.6897 49.3049 42.186 50.2769 41.1786 50.916C40.1769 51.555 38.6007 51.8746 36.45 51.8746ZM36.45 51.4321C38.3064 51.4321 39.6901 51.1729 40.6013 50.6545C41.5125 50.1316 41.9681 49.2468 41.9681 47.9999C41.9681 46.753 41.5125 45.8704 40.6013 45.352C39.6901 44.8291 38.3064 44.5677 36.45 44.5677C34.5937 44.5677 33.2099 44.8291 32.2987 45.352C31.3932 45.8704 30.9404 46.753 30.9404 47.9999C30.9404 49.2468 31.3932 50.1316 32.2987 50.6545C33.2099 51.1729 34.5937 51.4321 36.45 51.4321Z" stroke="#02A1D9" stroke-width="0.4" mask="url(#path-2-outside-1_5073_7914)"/>
<path d="M45.1561 51.7338C45.0485 51.7338 44.9834 51.7204 44.9608 51.6936C44.9438 51.6668 44.9353 51.602 44.9353 51.4992V44.5811C44.9353 44.4515 44.9466 44.3666 44.9693 44.3264C44.9919 44.2861 45.0853 44.266 45.2494 44.266H53.0002C53.1644 44.266 53.3087 44.2727 53.4332 44.2861C53.5634 44.2995 53.6285 44.371 53.6285 44.5006C53.6285 44.6124 53.5634 44.6749 53.4332 44.6883C53.3087 44.7018 53.1644 44.7085 53.0002 44.7085H45.6569V47.6446H52.9578C53.0823 47.6446 53.187 47.658 53.2719 47.6848C53.3568 47.7117 53.3992 47.7698 53.3992 47.8591C53.3992 47.9575 53.3625 48.0223 53.2889 48.0535C53.221 48.0848 53.1304 48.1005 53.0172 48.1005H45.6569V51.2914H53.0172C53.1813 51.2914 53.3257 51.2981 53.4502 51.3115C53.5804 51.3249 53.6454 51.3875 53.6454 51.4992C53.6454 51.6288 53.5917 51.7003 53.4841 51.7137C53.3823 51.7226 53.2493 51.7293 53.0851 51.7338H45.1561Z" stroke="#02A1D9" stroke-width="0.4" mask="url(#path-2-outside-1_5073_7914)"/>
<path d="M56.1797 51.7338C56.0156 51.7338 55.9109 51.6891 55.8656 51.5997C55.826 51.5059 55.8062 51.3942 55.8062 51.2646V44.7018C55.8062 44.4247 55.9222 44.2861 56.1542 44.2861C56.2957 44.2861 56.4598 44.3532 56.6466 44.4872L65.3312 50.8757V44.7755C65.3312 44.6459 65.3482 44.5297 65.3822 44.4269C65.4218 44.3196 65.5265 44.266 65.6963 44.266C65.8434 44.266 65.9396 44.3174 65.9849 44.4202C66.0302 44.5185 66.0528 44.637 66.0528 44.7755V51.3048C66.0528 51.5908 65.9566 51.7338 65.7642 51.7338C65.634 51.7338 65.4727 51.6645 65.2803 51.526L56.5278 45.1241V51.2646C56.5278 51.3942 56.5023 51.5059 56.4513 51.5997C56.4061 51.6891 56.3155 51.7338 56.1797 51.7338Z" stroke="#02A1D9" stroke-width="0.4" mask="url(#path-2-outside-1_5073_7914)"/>
<path d="M68.2305 51.7338C68.0947 51.7338 67.956 51.7271 67.8146 51.7137C67.6787 51.7003 67.6108 51.6288 67.6108 51.4992C67.6108 51.3875 67.6759 51.3249 67.8061 51.3115C67.9419 51.2981 68.0834 51.2914 68.2305 51.2914H71.2612V44.7085H68.2305C68.0834 44.7085 67.9419 44.7018 67.8061 44.6883C67.6759 44.6749 67.6108 44.6124 67.6108 44.5006C67.6108 44.371 67.6787 44.2995 67.8146 44.2861C67.956 44.2727 68.0947 44.266 68.2305 44.266H75.0135C75.1777 44.266 75.3192 44.2727 75.438 44.2861C75.5625 44.2995 75.6248 44.3666 75.6248 44.4872C75.6248 44.6079 75.5625 44.6749 75.438 44.6883C75.3192 44.7018 75.1777 44.7085 75.0135 44.7085H71.9828V51.2914H75.0135C75.1777 51.2914 75.3192 51.2981 75.438 51.3115C75.5625 51.3249 75.6248 51.3919 75.6248 51.5126C75.6248 51.6332 75.5625 51.7003 75.438 51.7137C75.3192 51.7271 75.1777 51.7338 75.0135 51.7338H68.2305Z" stroke="#02A1D9" stroke-width="0.4" mask="url(#path-2-outside-1_5073_7914)"/>
<path d="M77.1997 51.7338C77.0413 51.7338 76.962 51.6735 76.962 51.5528C76.962 51.45 77.0328 51.345 77.1743 51.2377L81.4784 48.0669L77.2507 44.7487C77.1488 44.6682 77.0979 44.5856 77.0979 44.5006C77.0979 44.3487 77.1884 44.2727 77.3695 44.2727C77.4827 44.2727 77.5959 44.3174 77.7091 44.4068L81.9198 47.7385L86.1306 44.4068C86.2438 44.3174 86.3569 44.2727 86.4701 44.2727C86.6456 44.2727 86.7333 44.3487 86.7333 44.5006C86.7333 44.59 86.6852 44.6727 86.589 44.7487L82.3613 48.0669L86.6654 51.231C86.8012 51.3338 86.8691 51.4388 86.8691 51.5461C86.8691 51.6712 86.7927 51.7338 86.6399 51.7338C86.5154 51.7338 86.3824 51.6802 86.2409 51.5729L81.9198 48.3954L77.5987 51.5796C77.4629 51.6824 77.3299 51.7338 77.1997 51.7338Z" stroke="#02A1D9" stroke-width="0.4" mask="url(#path-2-outside-1_5073_7914)"/>
</svg>
